<?xml version="1.0"?>
<svg xmlns="http://www.w3.org/2000/svg" xmlns:xlink="http://www.w3.org/1999/xlink" xmlns:svgjs="http://svgjs.com/svgjs" version="1.1" width="512" height="512" x="0" y="0" viewBox="0 0 512 512" style="enable-background:new 0 0 512 512" xml:space="preserve" class=""><g><g xmlns="http://www.w3.org/2000/svg"><path d="m492 197.591h-472c-11.046 0-20 8.954-20 20v1.39c0 11.046 8.954 20 20 20h472c11.046 0 20-8.954 20-20v-1.39c0-11.046-8.954-20-20-20z" fill="#ffffff" data-original="#000000" style="" class=""/><path d="m138.54 492c0 11.046 8.954 20 20 20h194.92c11.046 0 20-8.954 20-20v-25.649h-234.92z" fill="#ffffff" data-original="#000000" style="" class=""/><path d="m82.39 392.621c6.5 25.75 29.6 43.73 56.16 43.73h235.45c26.65 0 49.77-18.07 56.21-43.94l30.72-123.43h-409.79z" fill="#ffffff" data-original="#000000" style="" class=""/><path d="m123.21 167.581h266.21c17.739 0 32.14-14.354 32.14-32.13 0-17.71-14.42-32.13-32.14-32.13h-50.37c-6.962 0-13.004-4.796-14.605-11.572-1.777-7.522-3.156-14.975-4.115-22.128-3.25-24.3-14.33-44.4-31.19-56.58-8.698-6.285-18.858-10.601-30.41-12.939-3.946-.798-7.109 3.233-5.506 6.926 4.052 9.333 5.371 19.28 4.676 28.503-1.2 16.22-12.01 30.01-27.55 35.13-15.16 5.02-28.45 14.34-38.41 26.96-2.85 3.6-7.19 5.7-11.78 5.7h-56.962c-18.689 0-32.64 14.503-32.757 31.908-.121 17.935 14.834 32.352 32.769 32.352z" fill="#ffffff" data-original="#000000" style="" class=""/></g></g></svg>
